<?xml version="1.0" encoding="UTF-8"?>
<svg xmlns="http://www.w3.org/2000/svg" xmlns:xlink="http://www.w3.org/1999/xlink" id="Layer_1" data-name="Layer 1" viewBox="0 0 1080 1080">
  <defs>
    <style>
      .cls-1 {
        clip-path: url(#clippath-2);
      }

      .cls-2 {
        clip-path: url(#clippath-6);
      }

      .cls-3, .cls-4 {
        fill: none;
      }

      .cls-3, .cls-5 {
        stroke-width: 0px;
      }

      .cls-6 {
        clip-path: url(#clippath-7);
      }

      .cls-7 {
        clip-path: url(#clippath-1);
      }

      .cls-8 {
        clip-path: url(#clippath-4);
      }

      .cls-4 {
        stroke: #1f1f1f;
        stroke-miterlimit: 10;
        stroke-width: .5px;
      }

      .cls-9 {
        clip-path: url(#clippath);
      }

      .cls-10 {
        clip-path: url(#clippath-3);
      }

      .cls-11 {
        clip-path: url(#clippath-5);
      }

      .cls-5 {
        fill: #ff6700;
      }
    </style>
    <clipPath id="clippath">
      <path class="cls-3" d="M208.36,888.64L472.92,359.51c6.38-12.76,16.72-23.1,29.48-29.48l158.35-79.18c10.85-5.43,24.05-1.03,29.48,9.83l17.38,34.76c6.19,12.37,6.18,26.93,0,39.3l-276.94,553.89c-6.19,12.37-6.19,26.93,0,39.3l128.65,257.3c6.19,12.37,6.19,26.93,0,39.3l-96.41,192.82c-2.02,4.05-7.8,4.05-9.83,0l-244.71-489.41c-6.19-12.37-6.19-26.93,0-39.3Z"/>
    </clipPath>
    <clipPath id="clippath-1">
      <path class="cls-3" d="M576.49-157.13L924.47,16.86c12.76,6.38,23.1,16.72,29.48,29.48l92.31,184.63c2.02,4.05,7.8,4.05,9.83,0l98.87-197.73c5.43-10.85,1.03-24.05-9.83-29.48l-568.63-284.32c-12.37-6.19-26.93-6.19-39.3,0L106.93-65.42c-12.76,6.38-23.1,16.72-29.48,29.48L31.2,56.57c-6.38,12.75-16.72,23.1-29.48,29.48l-230.89,115.45c-10.85,5.43-15.25,18.62-9.83,29.48L-51.09,606.78c5.43,10.85,18.62,15.25,29.48,9.83l369.26-184.63c12.76-6.38,23.1-16.72,29.48-29.48l46.26-92.52c6.38-12.76,16.72-23.1,29.48-29.48l178.16-89.08c10.85-5.43,15.25-18.62,9.83-29.48l-108.81-217.63c-5.43-10.85-18.62-15.25-29.48-9.83L383.68-6.06c-10.85,5.43-24.05,1.03-29.48-9.83l-10.07-20.14c-5.43-10.85-1.03-24.05,9.83-29.48l183.24-91.62c12.37-6.19,26.93-6.19,39.3,0Z"/>
    </clipPath>
    <clipPath id="clippath-2">
      <path class="cls-3" d="M134.06,888.64l176.34-352.67c2.36-4.72-2.65-9.73-7.37-7.37l-453.09,226.55c-10.85,5.43-15.25,18.62-9.83,29.48l464.67,929.33c2.02,4.05,7.8,4.05,9.83,0l96.41-192.82c6.19-12.37,6.19-26.93,0-39.3L134.06,927.94c-6.19-12.37-6.19-26.93,0-39.3Z"/>
    </clipPath>
    <clipPath id="clippath-3">
      <path class="cls-3" d="M781.9,334.75l-276.94,553.89c-6.19,12.37-6.19,26.93,0,39.3l96.41,192.82c2.02,4.05,7.8,4.05,9.83,0l393.01-786.01c6.19-12.37,6.19-26.93,0-39.3l-99.79-199.57c-6.38-12.76-16.72-23.1-29.48-29.48l-262-131c-4.72-2.36-9.73,2.65-7.37,7.37l176.34,352.68c6.19,12.37,6.19,26.93,0,39.3Z"/>
    </clipPath>
    <clipPath id="clippath-4">
      <path class="cls-3" d="M1300.79,905.87l-264.56,529.12c-6.38,12.76-16.72,23.1-29.48,29.48l-158.35,79.18c-10.85,5.43-24.05,1.03-29.48-9.83l-17.38-34.76c-6.19-12.37-6.18-26.93,0-39.3l276.94-553.89c6.19-12.37,6.19-26.93,0-39.3l-128.65-257.3c-6.19-12.37-6.19-26.93,0-39.3l96.41-192.82c2.02-4.05,7.8-4.05,9.83,0l244.71,489.41c6.19,12.37,6.19,26.93,0,39.3Z"/>
    </clipPath>
    <clipPath id="clippath-5">
      <path class="cls-3" d="M932.66,1951.63l-347.97-173.99c-12.76-6.38-23.1-16.72-29.48-29.48l-92.31-184.63c-2.02-4.05-7.8-4.05-9.83,0l-98.87,197.73c-5.43,10.85-1.03,24.05,9.83,29.48l568.63,284.32c12.37,6.19,26.93,6.19,39.3,0l430.26-215.13c12.76-6.38,23.1-16.72,29.48-29.48l46.26-92.52c6.38-12.75,16.72-23.1,29.48-29.48l230.89-115.45c10.85-5.43,15.25-18.62,9.83-29.48l-187.9-375.81c-5.43-10.85-18.62-15.25-29.48-9.83l-369.26,184.63c-12.76,6.38-23.1,16.72-29.48,29.48l-46.26,92.52c-6.38,12.76-16.72,23.1-29.48,29.48l-178.16,89.08c-10.85,5.43-15.25,18.62-9.83,29.48l108.81,217.63c5.43,10.85,18.62,15.25,29.48,9.83l118.88-59.44c10.85-5.43,24.05-1.03,29.48,9.83l10.07,20.14c5.43,10.85,1.03,24.05-9.83,29.48l-183.24,91.62c-12.37,6.19-26.93,6.19-39.3,0Z"/>
    </clipPath>
    <clipPath id="clippath-6">
      <path class="cls-3" d="M1375.09,905.87l-176.34,352.67c-2.36,4.72,2.65,9.73,7.37,7.37l453.09-226.55c10.85-5.43,15.25-18.62,9.83-29.48L1204.38,80.55c-2.02-4.05-7.8-4.05-9.83,0l-96.41,192.82c-6.19,12.37-6.19,26.93,0,39.3l276.95,553.89c6.19,12.37,6.19,26.93,0,39.3Z"/>
    </clipPath>
    <clipPath id="clippath-7">
      <path class="cls-3" d="M727.25,1459.76l276.94-553.89c6.19-12.37,6.19-26.93,0-39.3l-96.41-192.82c-2.02-4.05-7.8-4.05-9.83,0l-393.01,786.01c-6.19,12.37-6.19,26.93,0,39.3l99.79,199.57c6.38,12.76,16.72,23.1,29.48,29.48l262,131c4.72,2.36,9.73-2.65,7.37-7.37l-176.34-352.68c-6.19-12.37-6.19-26.93,0-39.3Z"/>
    </clipPath>
  </defs>
  <g>
    <g class="cls-9">
      <g>
        <path class="cls-4" d="M878.13-6.31l-447.47,894.94c-6.19,12.37-6.19,26.93,0,39.3l261.19,522.39"/>
        <path class="cls-4" d="M862.27-6.31l-447.47,894.94c-6.19,12.37-6.19,26.93,0,39.3l261.19,522.39"/>
        <path class="cls-4" d="M846.41-6.31l-447.47,894.94c-6.19,12.37-6.19,26.93,0,39.3l261.19,522.39"/>
        <path class="cls-4" d="M830.55-6.31l-447.47,894.94c-6.19,12.37-6.19,26.93,0,39.3l261.19,522.39"/>
        <path class="cls-4" d="M814.68-6.31l-447.47,894.94c-6.19,12.37-6.19,26.93,0,39.3l261.19,522.39"/>
        <path class="cls-4" d="M798.82-6.31l-447.47,894.94c-6.19,12.37-6.19,26.93,0,39.3l261.19,522.39"/>
        <path class="cls-4" d="M782.96-6.31l-447.47,894.94c-6.19,12.37-6.19,26.93,0,39.3l261.19,522.39"/>
        <path class="cls-4" d="M767.1-6.31l-447.47,894.94c-6.19,12.37-6.19,26.93,0,39.3l261.19,522.39"/>
        <path class="cls-4" d="M751.24-6.31l-447.47,894.94c-6.19,12.37-6.19,26.93,0,39.3l261.19,522.39"/>
        <path class="cls-4" d="M735.38-6.31l-447.47,894.94c-6.19,12.37-6.19,26.93,0,39.3l261.19,522.39"/>
        <path class="cls-4" d="M719.52-6.31l-447.47,894.94c-6.19,12.37-6.19,26.93,0,39.3l261.19,522.39"/>
        <path class="cls-4" d="M703.66-6.31l-447.47,894.94c-6.19,12.37-6.19,26.93,0,39.3l261.19,522.39"/>
        <path class="cls-4" d="M687.8-6.31L240.33,888.64c-6.19,12.37-6.19,26.93,0,39.3l261.19,522.39"/>
        <path class="cls-4" d="M671.94-6.31L224.47,888.64c-6.19,12.37-6.19,26.93,0,39.3l261.19,522.39"/>
      </g>
    </g>
    <g class="cls-7">
      <g>
        <path class="cls-4" d="M82.21,950.92l522.36-261.18c12.76-6.38,23.1-16.72,29.48-29.48l46.26-92.52c6.38-12.76,16.72-23.1,29.48-29.48l713.58-356.79"/>
        <path class="cls-4" d="M72.67,941.38l522.36-261.18c12.76-6.38,23.1-16.72,29.48-29.48l46.26-92.52c6.38-12.76,16.72-23.1,29.48-29.48l713.58-356.79"/>
        <path class="cls-4" d="M63.13,931.84l522.36-261.18c12.76-6.38,23.1-16.72,29.48-29.48l46.26-92.52c6.38-12.76,16.72-23.1,29.48-29.48l713.58-356.79"/>
        <path class="cls-4" d="M53.59,922.3l522.36-261.18c12.76-6.38,23.1-16.72,29.48-29.48l46.26-92.52c6.38-12.76,16.72-23.1,29.48-29.48l713.58-356.79"/>
        <path class="cls-4" d="M44.05,912.76l522.36-261.18c12.76-6.38,23.1-16.72,29.48-29.48l46.26-92.52c6.38-12.76,16.72-23.1,29.48-29.48l713.58-356.79"/>
        <path class="cls-4" d="M34.52,903.22l522.36-261.18c12.76-6.38,23.1-16.72,29.48-29.48l46.26-92.52c6.38-12.76,16.72-23.1,29.48-29.48l713.58-356.79"/>
        <path class="cls-4" d="M24.98,893.69l522.36-261.18c12.76-6.38,23.1-16.72,29.48-29.48l46.26-92.52c6.38-12.76,16.72-23.1,29.48-29.48L1366.13,124.24"/>
        <path class="cls-4" d="M15.44,884.15l522.36-261.18c12.76-6.38,23.1-16.72,29.48-29.48l46.26-92.52c6.38-12.76,16.72-23.1,29.48-29.48L1356.59,114.7"/>
        <path class="cls-4" d="M5.9,874.61l522.36-261.18c12.76-6.38,23.1-16.72,29.48-29.48l46.26-92.52c6.38-12.76,16.72-23.1,29.48-29.48L1347.05,105.17"/>
        <path class="cls-4" d="M-3.64,865.07l522.36-261.18c12.76-6.38,23.1-16.72,29.48-29.48l46.26-92.52c6.38-12.76,16.72-23.1,29.48-29.48L1337.51,95.63"/>
        <path class="cls-4" d="M-13.18,855.53l522.36-261.18c12.76-6.38,23.1-16.72,29.48-29.48l46.26-92.52c6.38-12.76,16.72-23.1,29.48-29.48L1327.97,86.09"/>
        <path class="cls-4" d="M-22.71,845.99l522.36-261.18c12.76-6.38,23.1-16.72,29.48-29.48l46.26-92.52c6.38-12.76,16.72-23.1,29.48-29.48L1318.44,76.55"/>
        <path class="cls-4" d="M-32.25,836.46l522.36-261.18c12.76-6.38,23.1-16.72,29.48-29.48l46.26-92.52c6.38-12.76,16.72-23.1,29.48-29.48L1308.9,67.01"/>
        <path class="cls-4" d="M-41.79,826.92l522.36-261.18c12.76-6.38,23.1-16.72,29.48-29.48l46.26-92.52c6.38-12.76,16.72-23.1,29.48-29.48L1299.36,57.47"/>
        <path class="cls-4" d="M-51.33,817.38l522.36-261.18c12.76-6.38,23.1-16.72,29.48-29.48l46.26-92.52c6.38-12.76,16.72-23.1,29.48-29.48L1289.82,47.94"/>
        <path class="cls-4" d="M-60.87,807.84l522.36-261.18c12.76-6.38,23.1-16.72,29.48-29.48l46.26-92.52c6.38-12.76,16.72-23.1,29.48-29.48L1280.28,38.4"/>
        <path class="cls-4" d="M-70.41,798.3l522.36-261.18c12.76-6.38,23.1-16.72,29.48-29.48l46.26-92.52c6.38-12.76,16.72-23.1,29.48-29.48L1270.74,28.86"/>
        <path class="cls-4" d="M-79.94,788.76l522.36-261.18c12.76-6.38,23.1-16.72,29.48-29.48l46.26-92.52c6.38-12.76,16.72-23.1,29.48-29.48L1261.21,19.32"/>
        <path class="cls-4" d="M-89.48,779.23l522.36-261.18c12.76-6.38,23.1-16.72,29.48-29.48l46.26-92.52c6.38-12.76,16.72-23.1,29.48-29.48L1251.67,9.78"/>
        <path class="cls-4" d="M-99.02,769.69L423.34,508.51c12.76-6.38,23.1-16.72,29.48-29.48l46.26-92.52c6.38-12.76,16.72-23.1,29.48-29.48L1242.13.24"/>
        <path class="cls-4" d="M-108.56,760.15L413.8,498.97c12.76-6.38,23.1-16.72,29.48-29.48l46.26-92.52c6.38-12.76,16.72-23.1,29.48-29.48L1232.59-9.29"/>
        <path class="cls-4" d="M-118.1,750.61L404.26,489.43c12.76-6.38,23.1-16.72,29.48-29.48l46.26-92.52c6.38-12.76,16.72-23.1,29.48-29.48L1223.05-18.83"/>
        <path class="cls-4" d="M-127.64,741.07L394.73,479.89c12.76-6.38,23.1-16.72,29.48-29.48l46.26-92.52c6.38-12.76,16.72-23.1,29.48-29.48L1213.51-28.37"/>
        <path class="cls-4" d="M-137.17,731.53L385.19,470.35c12.76-6.38,23.1-16.72,29.48-29.48l46.26-92.52c6.38-12.76,16.72-23.1,29.48-29.48L1203.98-37.91"/>
        <path class="cls-4" d="M-146.71,722L375.65,460.81c12.76-6.38,23.1-16.72,29.48-29.48l46.26-92.52c6.38-12.76,16.72-23.1,29.48-29.48L1194.44-47.45"/>
        <path class="cls-4" d="M-156.25,712.46L366.11,451.28c12.76-6.38,23.1-16.72,29.48-29.48l46.26-92.52c6.38-12.76,16.72-23.1,29.48-29.48L1184.9-56.99"/>
        <path class="cls-4" d="M-165.79,702.92L356.57,441.74c12.76-6.38,23.1-16.72,29.48-29.48l46.26-92.52c6.38-12.76,16.72-23.1,29.48-29.48L1175.36-66.52"/>
        <path class="cls-4" d="M-175.33,693.38L347.03,432.2c12.76-6.38,23.1-16.72,29.48-29.48l46.26-92.52c6.38-12.76,16.72-23.1,29.48-29.48L1165.82-76.06"/>
        <path class="cls-4" d="M-184.87,683.84L337.5,422.66c12.76-6.38,23.1-16.72,29.48-29.48l46.26-92.52c6.38-12.76,16.72-23.1,29.48-29.48L1156.28-85.6"/>
        <path class="cls-4" d="M-194.4,674.3L327.96,413.12c12.76-6.38,23.1-16.72,29.48-29.48l46.26-92.52c6.38-12.76,16.72-23.1,29.48-29.48L1146.75-95.14"/>
        <path class="cls-4" d="M-203.94,664.77L318.42,403.58c12.76-6.38,23.1-16.72,29.48-29.48l46.26-92.52c6.38-12.76,16.72-23.1,29.48-29.48L1137.21-104.68"/>
        <path class="cls-4" d="M-213.48,655.23L308.88,394.05c12.76-6.38,23.1-16.72,29.48-29.48l46.26-92.52c6.38-12.76,16.72-23.1,29.48-29.48L1127.67-114.21"/>
        <path class="cls-4" d="M-223.02,645.69L299.34,384.51c12.76-6.38,23.1-16.72,29.48-29.48l46.26-92.52c6.38-12.76,16.72-23.1,29.48-29.48L1118.13-123.75"/>
        <path class="cls-4" d="M-232.56,636.15L289.8,374.97c12.76-6.38,23.1-16.72,29.48-29.48l46.26-92.52c6.38-12.76,16.72-23.1,29.48-29.48l713.58-356.79"/>
        <path class="cls-4" d="M-242.1,626.61L280.26,365.43c12.76-6.38,23.1-16.72,29.48-29.48l46.26-92.52c6.38-12.76,16.72-23.1,29.48-29.48l713.58-356.79"/>
        <path class="cls-4" d="M-251.63,617.07L270.73,355.89c12.76-6.38,23.1-16.72,29.48-29.48l46.26-92.52c6.38-12.76,16.72-23.1,29.48-29.48l713.58-356.79"/>
        <path class="cls-4" d="M-261.17,607.54L261.19,346.35c12.76-6.38,23.1-16.72,29.48-29.48l46.26-92.52c6.38-12.76,16.72-23.1,29.48-29.48l713.58-356.79"/>
        <path class="cls-4" d="M-270.71,598L251.65,336.82c12.76-6.38,23.1-16.72,29.48-29.48l46.26-92.52c6.38-12.76,16.72-23.1,29.48-29.48l713.58-356.79"/>
        <path class="cls-4" d="M-280.25,588.46L242.11,327.28c12.76-6.38,23.1-16.72,29.48-29.48l46.26-92.52c6.38-12.76,16.72-23.1,29.48-29.48l713.58-356.79"/>
        <path class="cls-4" d="M-289.79,578.92L232.57,317.74c12.76-6.38,23.1-16.72,29.48-29.48l46.26-92.52c6.38-12.76,16.72-23.1,29.48-29.48l713.58-356.79"/>
        <path class="cls-4" d="M-299.33,569.38L223.03,308.2c12.76-6.38,23.1-16.72,29.48-29.48l46.26-92.52c6.38-12.76,16.72-23.1,29.48-29.48l713.58-356.79"/>
        <path class="cls-4" d="M-308.86,559.85L213.5,298.66c12.76-6.38,23.1-16.72,29.48-29.48l46.26-92.52c6.38-12.76,16.72-23.1,29.48-29.48l713.58-356.79"/>
        <path class="cls-4" d="M-318.4,550.31L203.96,289.12c12.76-6.38,23.1-16.72,29.48-29.48l46.26-92.52c6.38-12.76,16.72-23.1,29.48-29.48L1022.75-219.14"/>
        <path class="cls-4" d="M-327.94,540.77L194.42,279.59c12.76-6.38,23.1-16.72,29.48-29.48l46.26-92.52c6.38-12.76,16.72-23.1,29.48-29.48L1013.21-228.67"/>
        <path class="cls-4" d="M-337.48,531.23L184.88,270.05c12.76-6.38,23.1-16.72,29.48-29.48l46.26-92.52c6.38-12.76,16.72-23.1,29.48-29.48L1003.67-238.21"/>
        <path class="cls-4" d="M-347.02,521.69L175.34,260.51c12.76-6.38,23.1-16.72,29.48-29.48l46.26-92.52c6.38-12.76,16.72-23.1,29.48-29.48L994.13-247.75"/>
        <path class="cls-4" d="M-356.56,512.15L165.8,250.97c12.76-6.38,23.1-16.72,29.48-29.48l46.26-92.52c6.38-12.76,16.72-23.1,29.48-29.48l713.58-356.79"/>
        <path class="cls-4" d="M-366.09,502.62L156.27,241.43c12.76-6.38,23.1-16.72,29.48-29.48l46.26-92.52c6.38-12.76,16.72-23.1,29.48-29.48l713.58-356.79"/>
        <path class="cls-4" d="M-375.63,493.08L146.73,231.89c12.76-6.38,23.1-16.72,29.48-29.48l46.26-92.52c6.38-12.76,16.72-23.1,29.48-29.48l713.58-356.79"/>
        <path class="cls-4" d="M-385.17,483.54L137.19,222.36c12.76-6.38,23.1-16.72,29.48-29.48l46.26-92.52c6.38-12.76,16.72-23.1,29.48-29.48l713.58-356.79"/>
        <path class="cls-4" d="M-394.71,474L127.65,212.82c12.76-6.38,23.1-16.72,29.48-29.48l46.26-92.52c6.38-12.76,16.72-23.1,29.48-29.48l713.58-356.79"/>
        <path class="cls-4" d="M-404.25,464.46L118.11,203.28c12.76-6.38,23.1-16.72,29.48-29.48l46.26-92.52c6.38-12.76,16.72-23.1,29.48-29.48l713.58-356.79"/>
        <path class="cls-4" d="M-413.79,454.92L108.57,193.74c12.76-6.38,23.1-16.72,29.48-29.48l46.26-92.52c6.38-12.76,16.72-23.1,29.48-29.48l713.58-356.79"/>
        <path class="cls-4" d="M-423.32,445.39L99.04,184.2c12.76-6.38,23.1-16.72,29.48-29.48l46.26-92.52c6.38-12.76,16.72-23.1,29.48-29.48l713.58-356.79"/>
        <path class="cls-4" d="M-432.86,435.85L89.5,174.67c12.76-6.38,23.1-16.72,29.48-29.48l46.26-92.52c6.38-12.76,16.72-23.1,29.48-29.48l713.58-356.79"/>
        <path class="cls-4" d="M-442.4,426.31L79.96,165.13c12.76-6.38,23.1-16.72,29.48-29.48l46.26-92.52c6.38-12.76,16.72-23.1,29.48-29.48l713.58-356.79"/>
        <path class="cls-4" d="M-451.94,416.77L70.42,155.59c12.76-6.38,23.1-16.72,29.48-29.48l46.26-92.52c6.38-12.76,16.72-23.1,29.48-29.48l713.58-356.79"/>
        <path class="cls-4" d="M-461.48,407.23L60.88,146.05c12.76-6.38,23.1-16.72,29.48-29.48l46.26-92.52c6.38-12.76,16.72-23.1,29.48-29.48l713.58-356.79"/>
        <path class="cls-4" d="M-471.02,397.69L51.34,136.51c12.76-6.38,23.1-16.72,29.48-29.48L127.08,14.52c6.38-12.76,16.72-23.1,29.48-29.48l713.58-356.79"/>
        <path class="cls-4" d="M-480.56,388.16L41.81,126.97c12.76-6.38,23.1-16.72,29.48-29.48L117.54,4.98c6.38-12.76,16.72-23.1,29.48-29.48l713.58-356.79"/>
        <path class="cls-4" d="M-490.09,378.62L32.27,117.44c12.76-6.38,23.1-16.72,29.48-29.48L108-4.56c6.38-12.76,16.72-23.1,29.48-29.48l713.58-356.79"/>
        <path class="cls-4" d="M-499.63,369.08L22.73,107.9c12.76-6.38,23.1-16.72,29.48-29.48L98.47-14.1c6.38-12.76,16.72-23.1,29.48-29.48l713.58-356.79"/>
        <path class="cls-4" d="M-509.17,359.54L13.19,98.36c12.76-6.38,23.1-16.72,29.48-29.48L88.93-23.64c6.38-12.76,16.72-23.1,29.48-29.48l713.58-356.79"/>
        <path class="cls-4" d="M-518.71,350L3.65,88.82c12.76-6.38,23.1-16.72,29.48-29.48l46.26-92.52c6.38-12.76,16.72-23.1,29.48-29.48l713.58-356.79"/>
        <path class="cls-4" d="M-528.25,340.46L-5.89,79.28c12.76-6.38,23.1-16.72,29.48-29.48l46.26-92.52c6.38-12.76,16.72-23.1,29.48-29.48l713.58-356.79"/>
        <path class="cls-4" d="M-537.79,330.93L-15.42,69.74c12.76-6.38,23.1-16.72,29.48-29.48L60.31-52.25c6.38-12.76,16.72-23.1,29.48-29.48l713.58-356.79"/>
        <path class="cls-4" d="M-547.32,321.39L-24.96,60.21C-12.21,53.83-1.87,43.49,4.51,30.73L50.77-61.79c6.38-12.76,16.72-23.1,29.48-29.48l713.58-356.79"/>
        <path class="cls-4" d="M-556.86,311.85L-34.5,50.67c12.76-6.38,23.1-16.72,29.48-29.48l46.26-92.52c6.38-12.76,16.72-23.1,29.48-29.48l713.58-356.79"/>
        <path class="cls-4" d="M-566.4,302.31L-44.04,41.13c12.76-6.38,23.1-16.72,29.48-29.48L31.7-80.87c6.38-12.76,16.72-23.1,29.48-29.48l713.58-356.79"/>
        <path class="cls-4" d="M-575.94,292.77L-53.58,31.59c12.76-6.38,23.1-16.72,29.48-29.48L22.16-90.4c6.38-12.76,16.72-23.1,29.48-29.48l713.58-356.79"/>
        <path class="cls-4" d="M-585.48,283.23L-63.12,22.05c12.76-6.38,23.1-16.72,29.48-29.48L12.62-99.94c6.38-12.76,16.72-23.1,29.48-29.48l713.58-356.79"/>
        <path class="cls-4" d="M-595.02,273.7L-72.65,12.51c12.76-6.38,23.1-16.72,29.48-29.48L3.08-109.48c6.38-12.76,16.72-23.1,29.48-29.48l713.58-356.79"/>
        <path class="cls-4" d="M-604.55,264.16L-82.19,2.98c12.76-6.38,23.1-16.72,29.48-29.48L-6.46-119.02c6.38-12.76,16.72-23.1,29.48-29.48l713.58-356.79"/>
        <path class="cls-4" d="M-614.09,254.62L-91.73-6.56c12.76-6.38,23.1-16.72,29.48-29.48L-15.99-128.56c6.38-12.76,16.72-23.1,29.48-29.48l713.58-356.79"/>
        <path class="cls-4" d="M-623.63,245.08L-101.27-16.1c12.76-6.38,23.1-16.72,29.48-29.48l46.26-92.52c6.38-12.76,16.72-23.1,29.48-29.48l713.58-356.79"/>
        <path class="cls-4" d="M-633.17,235.54L-110.81-25.64c12.76-6.38,23.1-16.72,29.48-29.48l46.26-92.52c6.38-12.76,16.72-23.1,29.48-29.48l713.58-356.79"/>
        <path class="cls-4" d="M-642.71,226.01L-120.35-35.18c12.76-6.38,23.1-16.72,29.48-29.48l46.26-92.52c6.38-12.76,16.72-23.1,29.48-29.48l713.58-356.79"/>
      </g>
    </g>
    <path class="cls-5" d="M556.84-284.69c6.71,0,13.43,1.59,19.43,4.59L1144.9,4.21c10.59,5.29,14.9,18.22,9.6,28.81l-98.87,197.73c-.86,1.73-2.53,2.76-4.47,2.76s-3.6-1.03-4.47-2.76l-92.31-184.63c-6.38-12.77-16.93-23.32-29.7-29.7l-347.97-173.99c-6.14-3.07-13.01-4.69-19.87-4.69-6.86,0-13.74,1.62-19.87,4.69l-183.24,91.62c-5.37,2.68-9.37,7.3-11.27,12.99-1.9,5.69-1.46,11.79,1.22,17.15l10.07,20.14c3.83,7.66,11.54,12.43,20.12,12.43,3.5,0,6.88-.8,10.03-2.38l118.88-59.44c3.01-1.51,6.24-2.27,9.58-2.27,8.19,0,15.56,4.55,19.22,11.87l108.81,217.63c2.56,5.13,2.98,10.95,1.17,16.39-1.81,5.44-5.64,9.85-10.77,12.41l-178.16,89.08c-12.77,6.38-23.31,16.93-29.7,29.7l-46.26,92.52c-6.29,12.58-16.68,22.96-29.25,29.25L-21.84,616.16c-3.01,1.51-6.24,2.27-9.58,2.27-8.19,0-15.56-4.55-19.22-11.87L-238.54,230.74c-5.29-10.59-.99-23.51,9.6-28.8L1.95,86.49c12.77-6.38,23.31-16.93,29.7-29.7l46.26-92.52c6.29-12.58,16.68-22.96,29.25-29.25l430.26-215.13c6-3,12.72-4.59,19.43-4.59M610.45-64.71c.77,0,1.53.19,2.26.55l262,131c12.58,6.29,22.96,16.68,29.25,29.25l99.79,199.57c6.08,12.16,6.08,26.69,0,38.85l-393,786.01c-.86,1.73-2.53,2.76-4.47,2.76s-3.6-1.03-4.47-2.76l-96.41-192.82c-6.08-12.16-6.08-26.69,0-38.85l276.94-553.89c6.22-12.44,6.22-27.3,0-39.75L606.01-57.46c-.79-1.59-.72-3.34.19-4.82.93-1.5,2.56-2.43,4.25-2.43M670.56,248.54v.5h0c8.19,0,15.56,4.55,19.22,11.87l17.38,34.76c6.08,12.16,6.08,26.69,0,38.85l-276.94,553.89c-6.22,12.44-6.22,27.3,0,39.75l128.65,257.3c6.08,12.16,6.08,26.69,0,38.85l-96.41,192.82c-.86,1.73-2.53,2.76-4.47,2.76s-3.6-1.03-4.47-2.76l-244.71-489.41c-6.08-12.16-6.08-26.69,0-38.85L473.37,359.74c6.29-12.58,16.68-22.96,29.25-29.25l158.35-79.18c3.01-1.51,6.24-2.27,9.58-2.27v-.5M305.51,528.49c1.7,0,3.33.93,4.25,2.43.91,1.48.98,3.24.19,4.82l-176.34,352.67c-6.22,12.44-6.22,27.3,0,39.75l276.95,553.89c6.08,12.16,6.08,26.69,0,38.85l-96.41,192.82c-.86,1.73-2.53,2.76-4.47,2.76s-3.6-1.03-4.47-2.76L-159.45,784.39c-2.56-5.13-2.98-10.95-1.16-16.39,1.81-5.44,5.64-9.85,10.77-12.41l453.09-226.55c.73-.37,1.49-.55,2.26-.55M556.84-285.19c-6.73,0-13.47,1.55-19.65,4.64L106.93-65.42c-12.75,6.38-23.1,16.72-29.48,29.48L31.2,56.57c-6.38,12.76-16.72,23.1-29.48,29.48l-230.89,115.45c-10.85,5.43-15.25,18.62-9.83,29.48L-51.09,606.78c3.85,7.7,11.61,12.15,19.67,12.15,3.3,0,6.65-.75,9.81-2.32l369.26-184.63c12.75-6.38,23.1-16.72,29.48-29.48l46.26-92.52c6.38-12.76,16.72-23.1,29.48-29.48l178.16-89.08c10.85-5.43,15.25-18.62,9.83-29.48l-108.81-217.63c-3.85-7.7-11.61-12.15-19.67-12.15-3.3,0-6.65.75-9.81,2.32L383.68-6.06c-3.15,1.58-6.51,2.32-9.81,2.32-8.06,0-15.82-4.45-19.67-12.15l-10.07-20.14c-5.43-10.85-1.03-24.05,9.83-29.48l183.24-91.62c6.18-3.09,12.92-4.64,19.65-4.64,6.73,0,13.46,1.55,19.65,4.64L924.47,16.86c12.76,6.38,23.1,16.72,29.48,29.48l92.31,184.63c1.01,2.02,2.96,3.04,4.91,3.04s3.9-1.01,4.91-3.04l98.87-197.73c5.43-10.85,1.03-24.05-9.83-29.48l-568.63-284.32c-6.19-3.09-12.92-4.64-19.65-4.64h0ZM610.45-65.21c-3.78,0-6.83,4.08-4.89,7.97l176.34,352.68c6.19,12.37,6.19,26.93,0,39.3l-276.94,553.89c-6.19,12.37-6.19,26.93,0,39.3l96.41,192.82c1.01,2.02,2.96,3.04,4.91,3.04s3.9-1.01,4.91-3.04l393-786.01c6.19-12.37,6.19-26.93,0-39.3l-99.79-199.57c-6.38-12.76-16.72-23.1-29.48-29.48l-262-131c-.83-.42-1.67-.6-2.48-.6h0ZM670.56,248.54c-3.3,0-6.65.75-9.81,2.32l-158.35,79.18c-12.76,6.38-23.1,16.72-29.48,29.48L208.36,888.64c-6.19,12.37-6.19,26.93,0,39.3l244.71,489.41c1.01,2.02,2.96,3.04,4.91,3.04s3.9-1.01,4.91-3.04l96.41-192.82c6.19-12.37,6.19-26.93,0-39.3l-128.65-257.3c-6.19-12.37-6.19-26.93,0-39.3l276.94-553.89c6.19-12.37,6.19-26.93,0-39.3l-17.38-34.76c-3.85-7.7-11.61-12.15-19.67-12.15h0ZM305.51,527.99c-.81,0-1.65.19-2.48.6l-453.09,226.55c-10.85,5.43-15.25,18.62-9.83,29.48l464.67,929.33c1.01,2.02,2.96,3.04,4.91,3.04s3.9-1.01,4.91-3.04l96.41-192.82c6.19-12.37,6.19-26.93,0-39.3L134.06,927.94c-6.19-12.37-6.19-26.93,0-39.3l176.34-352.67c1.95-3.89-1.11-7.98-4.89-7.98h0Z"/>
    <g class="cls-1">
      <g>
        <path class="cls-4" d="M585.65,1834.98L134.06,927.94c-6.19-12.37-6.19-26.93,0-39.3l197.98-395.95"/>
        <path class="cls-4" d="M569.73,1834.98L118.14,927.94c-6.19-12.37-6.19-26.93,0-39.3l197.98-395.95"/>
        <path class="cls-4" d="M553.81,1834.98L102.22,927.94c-6.19-12.37-6.19-26.93,0-39.3l197.98-395.95"/>
        <path class="cls-4" d="M537.89,1834.98L86.3,927.94c-6.19-12.37-6.19-26.93,0-39.3l197.98-395.95"/>
        <path class="cls-4" d="M521.96,1834.98L70.38,927.94c-6.19-12.37-6.19-26.93,0-39.3l197.98-395.95"/>
        <path class="cls-4" d="M506.04,1834.98L54.45,927.94c-6.19-12.37-6.19-26.93,0-39.3l197.98-395.95"/>
        <path class="cls-4" d="M490.12,1834.98L38.53,927.94c-6.19-12.37-6.19-26.93,0-39.3l197.98-395.95"/>
        <path class="cls-4" d="M474.2,1834.98L22.61,927.94c-6.19-12.37-6.19-26.93,0-39.3l197.98-395.95"/>
        <path class="cls-4" d="M458.28,1834.98L6.69,927.94c-6.19-12.37-6.19-26.93,0-39.3l197.98-395.95"/>
        <path class="cls-4" d="M442.36,1834.98L-9.23,927.94c-6.19-12.37-6.19-26.93,0-39.3l197.98-395.95"/>
        <path class="cls-4" d="M426.44,1834.98L-25.15,927.94c-6.19-12.37-6.19-26.93,0-39.3l197.98-395.95"/>
        <path class="cls-4" d="M410.51,1834.98L-41.07,927.94c-6.19-12.37-6.19-26.93,0-39.3l197.98-395.95"/>
        <path class="cls-4" d="M394.59,1834.98L-57,927.94c-6.19-12.37-6.19-26.93,0-39.3l197.98-395.95"/>
        <path class="cls-4" d="M378.67,1834.98L-72.92,927.94c-6.19-12.37-6.19-26.93,0-39.3L125.06,492.68"/>
        <path class="cls-4" d="M362.75,1834.98L-88.84,927.94c-6.19-12.37-6.19-26.93,0-39.3L109.14,492.68"/>
        <path class="cls-4" d="M346.83,1834.98L-104.76,927.94c-6.19-12.37-6.19-26.93,0-39.3L93.22,492.68"/>
        <path class="cls-4" d="M330.91,1834.98L-120.68,927.94c-6.19-12.37-6.19-26.93,0-39.3L77.29,492.68"/>
        <path class="cls-4" d="M314.98,1834.98L-136.6,927.94c-6.19-12.37-6.19-26.93,0-39.3L61.37,492.68"/>
        <path class="cls-4" d="M299.06,1834.98L-152.52,927.94c-6.19-12.37-6.19-26.93,0-39.3L45.45,492.68"/>
        <path class="cls-4" d="M283.14,1834.98L-168.45,927.94c-6.19-12.37-6.19-26.93,0-39.3L29.53,492.68"/>
        <path class="cls-4" d="M267.22,1834.98L-184.37,927.94c-6.19-12.37-6.19-26.93,0-39.3L13.61,492.68"/>
        <path class="cls-4" d="M251.3,1834.98L-200.29,927.94c-6.19-12.37-6.19-26.93,0-39.3L-2.31,492.68"/>
        <path class="cls-4" d="M235.38,1834.98L-216.21,927.94c-6.19-12.37-6.19-26.93,0-39.3L-18.23,492.68"/>
      </g>
    </g>
    <g class="cls-10">
      <g>
        <path class="cls-4" d="M581.71-104.93l200.19,400.37c6.19,12.37,6.19,26.93,0,39.3l-427.02,854.03"/>
        <path class="cls-4" d="M597.74-104.93l200.19,400.37c6.19,12.37,6.19,26.93,0,39.3l-427.02,854.03"/>
        <path class="cls-4" d="M613.76-104.93l200.19,400.37c6.19,12.37,6.19,26.93,0,39.3l-427.02,854.03"/>
        <path class="cls-4" d="M629.78-104.93l200.19,400.37c6.19,12.37,6.19,26.93,0,39.3l-427.02,854.03"/>
        <path class="cls-4" d="M645.81-104.93l200.19,400.37c6.19,12.37,6.19,26.93,0,39.3l-427.02,854.03"/>
        <path class="cls-4" d="M661.83-104.93l200.19,400.37c6.19,12.37,6.19,26.93,0,39.3l-427.02,854.03"/>
        <path class="cls-4" d="M677.86-104.93l200.19,400.37c6.19,12.37,6.19,26.93,0,39.3l-427.02,854.03"/>
        <path class="cls-4" d="M693.88-104.93l200.19,400.37c6.19,12.37,6.19,26.93,0,39.3l-427.02,854.03"/>
        <path class="cls-4" d="M709.9-104.93l200.19,400.37c6.19,12.37,6.19,26.93,0,39.3l-427.02,854.03"/>
        <path class="cls-4" d="M725.93-104.93l200.19,400.37c6.19,12.37,6.19,26.93,0,39.3l-427.02,854.03"/>
        <path class="cls-4" d="M741.95-104.93l200.19,400.37c6.19,12.37,6.19,26.93,0,39.3l-427.02,854.03"/>
        <path class="cls-4" d="M757.97-104.93l200.19,400.37c6.19,12.37,6.19,26.93,0,39.3l-427.02,854.03"/>
        <path class="cls-4" d="M774-104.93l200.19,400.37c6.19,12.37,6.19,26.93,0,39.3l-427.02,854.03"/>
        <path class="cls-4" d="M790.02-104.93l200.19,400.37c6.19,12.37,6.19,26.93,0,39.3l-427.02,854.03"/>
        <path class="cls-4" d="M806.04-104.93l200.19,400.37c6.19,12.37,6.19,26.93,0,39.3l-427.02,854.03"/>
      </g>
    </g>
    <path class="cls-5" d="M556.84-284.69c6.71,0,13.43,1.59,19.43,4.59L1144.9,4.21c10.59,5.29,14.9,18.22,9.6,28.81l-98.87,197.73c-.86,1.73-2.53,2.76-4.47,2.76s-3.6-1.03-4.47-2.76l-92.31-184.63c-6.38-12.77-16.93-23.32-29.7-29.7l-347.97-173.99c-6.14-3.07-13.01-4.69-19.87-4.69-6.86,0-13.74,1.62-19.87,4.69l-183.24,91.62c-5.37,2.68-9.37,7.3-11.27,12.99-1.9,5.69-1.46,11.79,1.22,17.15l10.07,20.14c3.83,7.66,11.54,12.43,20.12,12.43,3.5,0,6.88-.8,10.03-2.38l118.88-59.44c3.01-1.51,6.24-2.27,9.58-2.27,8.19,0,15.56,4.55,19.22,11.87l108.81,217.63c2.56,5.13,2.98,10.95,1.17,16.39-1.81,5.44-5.64,9.85-10.77,12.41l-178.16,89.08c-12.77,6.38-23.31,16.93-29.7,29.7l-46.26,92.52c-6.29,12.58-16.68,22.96-29.25,29.25L-21.84,616.16c-3.01,1.51-6.24,2.27-9.58,2.27-8.19,0-15.56-4.55-19.22-11.87L-238.54,230.74c-5.29-10.59-.99-23.51,9.6-28.8L1.95,86.49c12.77-6.38,23.31-16.93,29.7-29.7l46.26-92.52c6.29-12.58,16.68-22.96,29.25-29.25l430.26-215.13c6-3,12.72-4.59,19.43-4.59M610.45-64.71c.77,0,1.53.19,2.26.55l262,131c12.58,6.29,22.96,16.68,29.25,29.25l99.79,199.57c6.08,12.16,6.08,26.69,0,38.85l-393,786.01c-.86,1.73-2.53,2.76-4.47,2.76s-3.6-1.03-4.47-2.76l-96.41-192.82c-6.08-12.16-6.08-26.69,0-38.85l276.94-553.89c6.22-12.44,6.22-27.3,0-39.75L606.01-57.46c-.79-1.59-.72-3.34.19-4.82.93-1.5,2.56-2.43,4.25-2.43M670.56,248.54v.5h0c8.19,0,15.56,4.55,19.22,11.87l17.38,34.76c6.08,12.16,6.08,26.69,0,38.85l-276.94,553.89c-6.22,12.44-6.22,27.3,0,39.75l128.65,257.3c6.08,12.16,6.08,26.69,0,38.85l-96.41,192.82c-.86,1.73-2.53,2.76-4.47,2.76s-3.6-1.03-4.47-2.76l-244.71-489.41c-6.08-12.16-6.08-26.69,0-38.85L473.37,359.74c6.29-12.58,16.68-22.96,29.25-29.25l158.35-79.18c3.01-1.51,6.24-2.27,9.58-2.27v-.5M305.51,528.49c1.7,0,3.33.93,4.25,2.43.91,1.48.98,3.24.19,4.82l-176.34,352.67c-6.22,12.44-6.22,27.3,0,39.75l276.95,553.89c6.08,12.16,6.08,26.69,0,38.85l-96.41,192.82c-.86,1.73-2.53,2.76-4.47,2.76s-3.6-1.03-4.47-2.76L-159.45,784.39c-2.56-5.13-2.98-10.95-1.16-16.39,1.81-5.44,5.64-9.85,10.77-12.41l453.09-226.55c.73-.37,1.49-.55,2.26-.55M556.84-285.19c-6.73,0-13.47,1.55-19.65,4.64L106.93-65.42c-12.75,6.38-23.1,16.72-29.48,29.48L31.2,56.57c-6.38,12.76-16.72,23.1-29.48,29.48l-230.89,115.45c-10.85,5.43-15.25,18.62-9.83,29.48L-51.09,606.78c3.85,7.7,11.61,12.15,19.67,12.15,3.3,0,6.65-.75,9.81-2.32l369.26-184.63c12.75-6.38,23.1-16.72,29.48-29.48l46.26-92.52c6.38-12.76,16.72-23.1,29.48-29.48l178.16-89.08c10.85-5.43,15.25-18.62,9.83-29.48l-108.81-217.63c-3.85-7.7-11.61-12.15-19.67-12.15-3.3,0-6.65.75-9.81,2.32L383.68-6.06c-3.15,1.58-6.51,2.32-9.81,2.32-8.06,0-15.82-4.45-19.67-12.15l-10.07-20.14c-5.43-10.85-1.03-24.05,9.83-29.48l183.24-91.62c6.18-3.09,12.92-4.64,19.65-4.64,6.73,0,13.46,1.55,19.65,4.64L924.47,16.86c12.76,6.38,23.1,16.72,29.48,29.48l92.31,184.63c1.01,2.02,2.96,3.04,4.91,3.04s3.9-1.01,4.91-3.04l98.87-197.73c5.43-10.85,1.03-24.05-9.83-29.48l-568.63-284.32c-6.19-3.09-12.92-4.64-19.65-4.64h0ZM610.45-65.21c-3.78,0-6.83,4.08-4.89,7.97l176.34,352.68c6.19,12.37,6.19,26.93,0,39.3l-276.94,553.89c-6.19,12.37-6.19,26.93,0,39.3l96.41,192.82c1.01,2.02,2.96,3.04,4.91,3.04s3.9-1.01,4.91-3.04l393-786.01c6.19-12.37,6.19-26.93,0-39.3l-99.79-199.57c-6.38-12.76-16.72-23.1-29.48-29.48l-262-131c-.83-.42-1.67-.6-2.48-.6h0ZM670.56,248.54c-3.3,0-6.65.75-9.81,2.32l-158.35,79.18c-12.76,6.38-23.1,16.72-29.48,29.48L208.36,888.64c-6.19,12.37-6.19,26.93,0,39.3l244.71,489.41c1.01,2.02,2.96,3.04,4.91,3.04s3.9-1.01,4.91-3.04l96.41-192.82c6.19-12.37,6.19-26.93,0-39.3l-128.65-257.3c-6.19-12.37-6.19-26.93,0-39.3l276.94-553.89c6.19-12.37,6.19-26.93,0-39.3l-17.38-34.76c-3.85-7.7-11.61-12.15-19.67-12.15h0ZM305.51,527.99c-.81,0-1.65.19-2.48.6l-453.09,226.55c-10.85,5.43-15.25,18.62-9.83,29.48l464.67,929.33c1.01,2.02,2.96,3.04,4.91,3.04s3.9-1.01,4.91-3.04l96.41-192.82c6.19-12.37,6.19-26.93,0-39.3L134.06,927.94c-6.19-12.37-6.19-26.93,0-39.3l176.34-352.67c1.95-3.89-1.11-7.98-4.89-7.98h0Z"/>
  </g>
  <g>
    <g class="cls-8">
      <g>
        <path class="cls-4" d="M631.02,1800.81l447.47-894.94c6.19-12.37,6.19-26.93,0-39.3l-261.19-522.39"/>
        <path class="cls-4" d="M646.88,1800.81l447.47-894.94c6.19-12.37,6.19-26.93,0-39.3l-261.19-522.39"/>
        <path class="cls-4" d="M662.75,1800.81l447.47-894.94c6.19-12.37,6.19-26.93,0-39.3l-261.19-522.39"/>
        <path class="cls-4" d="M678.61,1800.81l447.47-894.94c6.19-12.37,6.19-26.93,0-39.3l-261.19-522.39"/>
        <path class="cls-4" d="M694.47,1800.81l447.47-894.94c6.19-12.37,6.19-26.93,0-39.3l-261.19-522.39"/>
        <path class="cls-4" d="M710.33,1800.81l447.47-894.94c6.19-12.37,6.19-26.93,0-39.3l-261.19-522.39"/>
        <path class="cls-4" d="M726.19,1800.81l447.47-894.94c6.19-12.37,6.19-26.93,0-39.3l-261.19-522.39"/>
        <path class="cls-4" d="M742.05,1800.81l447.47-894.94c6.19-12.37,6.19-26.93,0-39.3l-261.19-522.39"/>
        <path class="cls-4" d="M757.91,1800.81l447.47-894.94c6.19-12.37,6.19-26.93,0-39.3l-261.19-522.39"/>
        <path class="cls-4" d="M773.77,1800.81l447.47-894.94c6.19-12.37,6.19-26.93,0-39.3l-261.19-522.39"/>
        <path class="cls-4" d="M789.63,1800.81l447.47-894.94c6.19-12.37,6.19-26.93,0-39.3l-261.19-522.39"/>
        <path class="cls-4" d="M805.49,1800.81l447.47-894.94c6.19-12.37,6.19-26.93,0-39.3l-261.19-522.39"/>
        <path class="cls-4" d="M821.35,1800.81l447.47-894.94c6.19-12.37,6.19-26.93,0-39.3l-261.19-522.39"/>
        <path class="cls-4" d="M837.21,1800.81l447.47-894.94c6.19-12.37,6.19-26.93,0-39.3l-261.19-522.39"/>
      </g>
    </g>
    <g class="cls-11">
      <g>
        <path class="cls-4" d="M1426.94,843.59l-522.36,261.18c-12.76,6.38-23.1,16.72-29.48,29.48l-46.26,92.52c-6.38,12.76-16.72,23.1-29.48,29.48L85.79,1613.03"/>
        <path class="cls-4" d="M1436.48,853.12l-522.36,261.18c-12.76,6.38-23.1,16.72-29.48,29.48l-46.26,92.52c-6.38,12.76-16.72,23.1-29.48,29.48L95.33,1622.57"/>
        <path class="cls-4" d="M1446.02,862.66l-522.36,261.18c-12.76,6.38-23.1,16.72-29.48,29.48l-46.26,92.52c-6.38,12.76-16.72,23.1-29.48,29.48L104.87,1632.11"/>
        <path class="cls-4" d="M1455.56,872.2l-522.36,261.18c-12.76,6.38-23.1,16.72-29.48,29.48l-46.26,92.52c-6.38,12.76-16.72,23.1-29.48,29.48L114.41,1641.64"/>
        <path class="cls-4" d="M1465.1,881.74l-522.36,261.18c-12.76,6.38-23.1,16.72-29.48,29.48l-46.26,92.52c-6.38,12.76-16.72,23.1-29.48,29.48L123.95,1651.18"/>
        <path class="cls-4" d="M1474.64,891.28l-522.36,261.18c-12.76,6.38-23.1,16.72-29.48,29.48l-46.26,92.52c-6.38,12.76-16.72,23.1-29.48,29.48l-713.58,356.79"/>
        <path class="cls-4" d="M1484.17,900.82l-522.36,261.18c-12.76,6.38-23.1,16.72-29.48,29.48l-46.26,92.52c-6.38,12.76-16.72,23.1-29.48,29.48l-713.58,356.79"/>
        <path class="cls-4" d="M1493.71,910.35l-522.36,261.18c-12.76,6.38-23.1,16.72-29.48,29.48l-46.26,92.52c-6.38,12.76-16.72,23.1-29.48,29.48l-713.58,356.79"/>
        <path class="cls-4" d="M1503.25,919.89l-522.36,261.18c-12.76,6.38-23.1,16.72-29.48,29.48l-46.26,92.52c-6.38,12.76-16.72,23.1-29.48,29.48l-713.58,356.79"/>
        <path class="cls-4" d="M1512.79,929.43l-522.36,261.18c-12.76,6.38-23.1,16.72-29.48,29.48l-46.26,92.52c-6.38,12.76-16.72,23.1-29.48,29.48l-713.58,356.79"/>
        <path class="cls-4" d="M1522.33,938.97l-522.36,261.18c-12.76,6.38-23.1,16.72-29.48,29.48l-46.26,92.52c-6.38,12.76-16.72,23.1-29.48,29.48l-713.58,356.79"/>
        <path class="cls-4" d="M1531.87,948.51l-522.36,261.18c-12.76,6.38-23.1,16.72-29.48,29.48l-46.26,92.52c-6.38,12.76-16.72,23.1-29.48,29.48l-713.58,356.79"/>
        <path class="cls-4" d="M1541.4,958.05l-522.36,261.18c-12.76,6.38-23.1,16.72-29.48,29.48l-46.26,92.52c-6.38,12.76-16.72,23.1-29.48,29.48l-713.58,356.79"/>
        <path class="cls-4" d="M1550.94,967.58l-522.36,261.18c-12.76,6.38-23.1,16.72-29.48,29.48l-46.26,92.52c-6.38,12.76-16.72,23.1-29.48,29.48l-713.58,356.79"/>
        <path class="cls-4" d="M1560.48,977.12l-522.36,261.18c-12.76,6.38-23.1,16.72-29.48,29.48l-46.26,92.52c-6.38,12.76-16.72,23.1-29.48,29.48l-713.58,356.79"/>
        <path class="cls-4" d="M1570.02,986.66l-522.36,261.18c-12.76,6.38-23.1,16.72-29.48,29.48l-46.26,92.52c-6.38,12.76-16.72,23.1-29.48,29.48l-713.58,356.79"/>
        <path class="cls-4" d="M1579.56,996.2l-522.36,261.18c-12.76,6.38-23.1,16.72-29.48,29.48l-46.26,92.52c-6.38,12.76-16.72,23.1-29.48,29.48l-713.58,356.79"/>
        <path class="cls-4" d="M1589.1,1005.74l-522.36,261.18c-12.76,6.38-23.1,16.72-29.48,29.48l-46.26,92.52c-6.38,12.76-16.72,23.1-29.48,29.48l-713.58,356.79"/>
        <path class="cls-4" d="M1598.63,1015.28l-522.36,261.18c-12.76,6.38-23.1,16.72-29.48,29.48l-46.26,92.52c-6.38,12.76-16.72,23.1-29.48,29.48l-713.58,356.79"/>
        <path class="cls-4" d="M1608.17,1024.81l-522.36,261.18c-12.76,6.38-23.1,16.72-29.48,29.48l-46.26,92.52c-6.38,12.76-16.72,23.1-29.48,29.48l-713.58,356.79"/>
        <path class="cls-4" d="M1617.71,1034.35l-522.36,261.18c-12.76,6.38-23.1,16.72-29.48,29.48l-46.26,92.52c-6.38,12.76-16.72,23.1-29.48,29.48l-713.58,356.79"/>
        <path class="cls-4" d="M1627.25,1043.89l-522.36,261.18c-12.76,6.38-23.1,16.72-29.48,29.48l-46.26,92.52c-6.38,12.76-16.72,23.1-29.48,29.48l-713.58,356.79"/>
        <path class="cls-4" d="M1636.79,1053.43l-522.36,261.18c-12.76,6.38-23.1,16.72-29.48,29.48l-46.26,92.52c-6.38,12.76-16.72,23.1-29.48,29.48l-713.58,356.79"/>
        <path class="cls-4" d="M1646.33,1062.97l-522.36,261.18c-12.76,6.38-23.1,16.72-29.48,29.48l-46.26,92.52c-6.38,12.76-16.72,23.1-29.48,29.48l-713.58,356.79"/>
        <path class="cls-4" d="M1655.86,1072.51l-522.36,261.18c-12.76,6.38-23.1,16.72-29.48,29.48l-46.26,92.52c-6.38,12.76-16.72,23.1-29.48,29.48l-713.58,356.79"/>
      </g>
    </g>
    <path class="cls-5" d="M1199.47,78.02c1.93,0,3.6,1.03,4.47,2.76l464.67,929.33c5.29,10.59.99,23.51-9.6,28.8l-453.09,226.55c-.73.37-1.49.55-2.26.55-1.7,0-3.33-.93-4.25-2.43-.91-1.48-.98-3.24-.19-4.82l176.34-352.67c6.22-12.44,6.22-27.3,0-39.75l-276.95-553.89c-6.08-12.16-6.08-26.69,0-38.85l96.41-192.82c.86-1.73,2.53-2.76,4.47-2.76M1051.17,374.11v.5c1.93,0,3.6,1.03,4.46,2.76l244.71,489.41c6.08,12.16,6.08,26.69,0,38.85l-264.56,529.12c-6.29,12.58-16.68,22.96-29.25,29.25l-158.35,79.18c-3.01,1.51-6.24,2.27-9.58,2.27-8.19,0-15.56-4.55-19.22-11.87l-17.38-34.76c-6.08-12.16-6.08-26.69,0-38.85l276.94-553.89c6.22-12.44,6.22-27.3,0-39.75l-128.65-257.3c-6.08-12.16-6.08-26.69,0-38.85l96.41-192.82c.86-1.73,2.53-2.76,4.47-2.76v-.5M902.87,671.21c1.93,0,3.6,1.03,4.47,2.76l96.41,192.82c6.08,12.16,6.08,26.69,0,38.85l-276.94,553.89c-6.22,12.44-6.22,27.3,0,39.75l176.34,352.68c.79,1.59.72,3.34-.19,4.82-.93,1.5-2.55,2.43-4.25,2.43-.77,0-1.53-.19-2.26-.55l-262-131c-12.58-6.29-22.96-16.68-29.25-29.25l-99.79-199.57c-6.08-12.16-6.08-26.69,0-38.85l393.01-786.01c.86-1.73,2.53-2.76,4.47-2.76M1540.57,1176.07c8.19,0,15.56,4.55,19.22,11.87l187.9,375.81c5.29,10.59.99,23.51-9.6,28.8l-230.89,115.45c-12.77,6.38-23.31,16.93-29.7,29.7l-46.26,92.52c-6.29,12.58-16.68,22.96-29.25,29.25l-430.26,215.13c-6,3-12.72,4.59-19.43,4.59s-13.43-1.59-19.43-4.59l-568.63-284.32c-10.59-5.29-14.9-18.22-9.6-28.81l98.87-197.73c.86-1.73,2.53-2.76,4.47-2.76s3.6,1.03,4.47,2.76l92.31,184.63c6.38,12.77,16.93,23.32,29.7,29.7l347.97,173.99c6.14,3.07,13.01,4.69,19.87,4.69s13.74-1.62,19.87-4.69l183.24-91.62c11.08-5.54,15.59-19.06,10.05-30.15l-10.07-20.14c-3.83-7.66-11.54-12.43-20.11-12.43-3.5,0-6.88.8-10.03,2.38l-118.88,59.44c-3.01,1.51-6.24,2.27-9.58,2.27-8.19,0-15.56-4.55-19.22-11.87l-108.81-217.63c-5.29-10.59-.99-23.51,9.6-28.81l178.16-89.08c12.77-6.38,23.31-16.93,29.7-29.7l46.26-92.52c6.29-12.58,16.68-22.96,29.25-29.25l369.26-184.63c3.01-1.51,6.24-2.27,9.58-2.27M1199.47,77.52c-1.95,0-3.9,1.01-4.91,3.04l-96.41,192.82c-6.19,12.37-6.19,26.93,0,39.3l276.95,553.89c6.19,12.37,6.19,26.93,0,39.3l-176.34,352.67c-1.95,3.89,1.11,7.98,4.89,7.98.81,0,1.65-.19,2.48-.6l453.09-226.55c10.85-5.43,15.25-18.62,9.83-29.48L1204.38,80.55c-1.01-2.02-2.96-3.04-4.91-3.04h0ZM1051.17,374.11c-1.95,0-3.9,1.01-4.91,3.04l-96.41,192.82c-6.19,12.37-6.19,26.93,0,39.3l128.65,257.3c6.19,12.37,6.19,26.93,0,39.3l-276.94,553.89c-6.19,12.37-6.19,26.93,0,39.3l17.38,34.76c3.85,7.7,11.61,12.15,19.67,12.15,3.3,0,6.65-.75,9.81-2.32l158.35-79.18c12.76-6.38,23.1-16.72,29.48-29.48l264.56-529.12c6.19-12.37,6.19-26.93,0-39.3l-244.71-489.41c-1.01-2.02-2.96-3.04-4.91-3.04h0ZM902.87,670.71c-1.95,0-3.9,1.01-4.91,3.04l-393.01,786.01c-6.19,12.37-6.19,26.93,0,39.3l99.79,199.57c6.38,12.76,16.72,23.1,29.48,29.48l262,131c.83.42,1.67.6,2.48.6,3.78,0,6.83-4.08,4.89-7.97l-176.34-352.68c-6.19-12.37-6.19-26.93,0-39.3l276.94-553.89c6.19-12.37,6.19-26.93,0-39.3l-96.41-192.82c-1.01-2.02-2.96-3.04-4.91-3.04h0ZM1540.57,1175.57c-3.3,0-6.65.75-9.81,2.32l-369.26,184.63c-12.76,6.38-23.1,16.72-29.48,29.48l-46.26,92.52c-6.38,12.76-16.72,23.1-29.48,29.47l-178.16,89.08c-10.85,5.43-15.25,18.62-9.83,29.48l108.81,217.63c3.85,7.7,11.61,12.15,19.67,12.15,3.3,0,6.65-.75,9.81-2.32l118.88-59.44c3.15-1.58,6.51-2.32,9.81-2.32,8.06,0,15.82,4.45,19.67,12.15l10.07,20.14c5.43,10.85,1.03,24.05-9.83,29.48l-183.24,91.62c-6.19,3.09-12.92,4.64-19.65,4.64s-13.47-1.55-19.65-4.64l-347.97-173.99c-12.76-6.38-23.1-16.72-29.48-29.48l-92.31-184.63c-1.01-2.02-2.96-3.04-4.91-3.04s-3.9,1.01-4.91,3.04l-98.87,197.73c-5.43,10.85-1.03,24.05,9.83,29.48l568.63,284.32c6.19,3.09,12.92,4.64,19.65,4.64s13.47-1.55,19.65-4.64l430.26-215.13c12.76-6.38,23.1-16.72,29.48-29.48l46.26-92.52c6.38-12.75,16.72-23.1,29.48-29.47l230.89-115.45c10.85-5.43,15.25-18.62,9.83-29.48l-187.9-375.81c-3.85-7.7-11.61-12.15-19.67-12.15h0Z"/>
    <g class="cls-2">
      <g>
        <path class="cls-4" d="M923.5-40.48l451.59,907.04c6.19,12.37,6.19,26.93,0,39.3l-197.98,395.95"/>
        <path class="cls-4" d="M939.42-40.48l451.59,907.04c6.19,12.37,6.19,26.93,0,39.3l-197.98,395.95"/>
        <path class="cls-4" d="M955.34-40.48l451.59,907.04c6.19,12.37,6.19,26.93,0,39.3l-197.98,395.95"/>
        <path class="cls-4" d="M971.27-40.48l451.59,907.04c6.19,12.37,6.19,26.93,0,39.3l-197.98,395.95"/>
        <path class="cls-4" d="M987.19-40.48l451.59,907.04c6.19,12.37,6.19,26.93,0,39.3l-197.98,395.95"/>
        <path class="cls-4" d="M1003.11-40.48l451.59,907.04c6.19,12.37,6.19,26.93,0,39.3l-197.98,395.95"/>
        <path class="cls-4" d="M1019.03-40.48l451.59,907.04c6.19,12.37,6.19,26.93,0,39.3l-197.98,395.95"/>
        <path class="cls-4" d="M1034.95-40.48l451.59,907.04c6.19,12.37,6.19,26.93,0,39.3l-197.98,395.95"/>
        <path class="cls-4" d="M1050.87-40.48l451.59,907.04c6.19,12.37,6.19,26.93,0,39.3l-197.98,395.95"/>
        <path class="cls-4" d="M1066.8-40.48l451.59,907.04c6.19,12.37,6.19,26.93,0,39.3l-197.98,395.95"/>
      </g>
    </g>
    <g class="cls-6">
      <g>
        <path class="cls-4" d="M927.44,1899.43l-200.19-400.37c-6.19-12.37-6.19-26.93,0-39.3l427.02-854.03"/>
        <path class="cls-4" d="M911.41,1899.43l-200.19-400.37c-6.19-12.37-6.19-26.93,0-39.3l427.02-854.03"/>
        <path class="cls-4" d="M895.39,1899.43l-200.19-400.37c-6.19-12.37-6.19-26.93,0-39.3l427.02-854.03"/>
        <path class="cls-4" d="M879.37,1899.43l-200.19-400.37c-6.19-12.37-6.19-26.93,0-39.3l427.02-854.03"/>
        <path class="cls-4" d="M863.34,1899.43l-200.19-400.37c-6.19-12.37-6.19-26.93,0-39.3l427.02-854.03"/>
        <path class="cls-4" d="M847.32,1899.43l-200.19-400.37c-6.19-12.37-6.19-26.93,0-39.3l427.02-854.03"/>
        <path class="cls-4" d="M831.3,1899.43l-200.19-400.37c-6.19-12.37-6.19-26.93,0-39.3l427.02-854.03"/>
        <path class="cls-4" d="M815.27,1899.43l-200.19-400.37c-6.19-12.37-6.19-26.93,0-39.3l427.02-854.03"/>
        <path class="cls-4" d="M799.25,1899.43l-200.19-400.37c-6.19-12.37-6.19-26.93,0-39.3l427.02-854.03"/>
        <path class="cls-4" d="M783.22,1899.43l-200.19-400.37c-6.19-12.37-6.19-26.93,0-39.3l427.02-854.03"/>
        <path class="cls-4" d="M767.2,1899.43l-200.19-400.37c-6.19-12.37-6.19-26.93,0-39.3l427.02-854.03"/>
        <path class="cls-4" d="M751.18,1899.43l-200.19-400.37c-6.19-12.37-6.19-26.93,0-39.3l427.02-854.03"/>
        <path class="cls-4" d="M735.15,1899.43l-200.19-400.37c-6.19-12.37-6.19-26.93,0-39.3l427.02-854.03"/>
        <path class="cls-4" d="M719.13,1899.43l-200.19-400.37c-6.19-12.37-6.19-26.93,0-39.3l427.02-854.03"/>
        <path class="cls-4" d="M703.11,1899.43l-200.19-400.37c-6.19-12.37-6.19-26.93,0-39.3l427.02-854.03"/>
      </g>
    </g>
    <path class="cls-5" d="M1199.47,78.02c1.93,0,3.6,1.03,4.47,2.76l464.67,929.33c5.29,10.59.99,23.51-9.6,28.8l-453.09,226.55c-.73.37-1.49.55-2.26.55-1.7,0-3.33-.93-4.25-2.43-.91-1.48-.98-3.24-.19-4.82l176.34-352.67c6.22-12.44,6.22-27.3,0-39.75l-276.95-553.89c-6.08-12.16-6.08-26.69,0-38.85l96.41-192.82c.86-1.73,2.53-2.76,4.47-2.76M1051.17,374.11v.5c1.93,0,3.6,1.03,4.46,2.76l244.71,489.41c6.08,12.16,6.08,26.69,0,38.85l-264.56,529.12c-6.29,12.58-16.68,22.96-29.25,29.25l-158.35,79.18c-3.01,1.51-6.24,2.27-9.58,2.27-8.19,0-15.56-4.55-19.22-11.87l-17.38-34.76c-6.08-12.16-6.08-26.69,0-38.85l276.94-553.89c6.22-12.44,6.22-27.3,0-39.75l-128.65-257.3c-6.08-12.16-6.08-26.69,0-38.85l96.41-192.82c.86-1.73,2.53-2.76,4.47-2.76v-.5M902.87,671.21c1.93,0,3.6,1.03,4.47,2.76l96.41,192.82c6.08,12.16,6.08,26.69,0,38.85l-276.94,553.89c-6.22,12.44-6.22,27.3,0,39.75l176.34,352.68c.79,1.59.72,3.34-.19,4.82-.93,1.5-2.55,2.43-4.25,2.43-.77,0-1.53-.19-2.26-.55l-262-131c-12.58-6.29-22.96-16.68-29.25-29.25l-99.79-199.57c-6.08-12.16-6.08-26.69,0-38.85l393.01-786.01c.86-1.73,2.53-2.76,4.47-2.76M1540.57,1176.07c8.19,0,15.56,4.55,19.22,11.87l187.9,375.81c5.29,10.59.99,23.51-9.6,28.8l-230.89,115.45c-12.77,6.38-23.31,16.93-29.7,29.7l-46.26,92.52c-6.29,12.58-16.68,22.96-29.25,29.25l-430.26,215.13c-6,3-12.72,4.59-19.43,4.59s-13.43-1.59-19.43-4.59l-568.63-284.32c-10.59-5.29-14.9-18.22-9.6-28.81l98.87-197.73c.86-1.73,2.53-2.76,4.47-2.76s3.6,1.03,4.47,2.76l92.31,184.63c6.38,12.77,16.93,23.32,29.7,29.7l347.97,173.99c6.14,3.07,13.01,4.69,19.87,4.69s13.74-1.62,19.87-4.69l183.24-91.62c11.08-5.54,15.59-19.06,10.05-30.15l-10.07-20.14c-3.83-7.66-11.54-12.43-20.11-12.43-3.5,0-6.88.8-10.03,2.38l-118.88,59.44c-3.01,1.51-6.24,2.27-9.58,2.27-8.19,0-15.56-4.55-19.22-11.87l-108.81-217.63c-5.29-10.59-.99-23.51,9.6-28.81l178.16-89.08c12.77-6.38,23.31-16.93,29.7-29.7l46.26-92.52c6.29-12.58,16.68-22.96,29.25-29.25l369.26-184.63c3.01-1.51,6.24-2.27,9.58-2.27M1199.47,77.52c-1.95,0-3.9,1.01-4.91,3.04l-96.41,192.82c-6.19,12.37-6.19,26.93,0,39.3l276.95,553.89c6.19,12.37,6.19,26.93,0,39.3l-176.34,352.67c-1.95,3.89,1.11,7.98,4.89,7.98.81,0,1.65-.19,2.48-.6l453.09-226.55c10.85-5.43,15.25-18.62,9.83-29.48L1204.38,80.55c-1.01-2.02-2.96-3.04-4.91-3.04h0ZM1051.17,374.11c-1.95,0-3.9,1.01-4.91,3.04l-96.41,192.82c-6.19,12.37-6.19,26.93,0,39.3l128.65,257.3c6.19,12.37,6.19,26.93,0,39.3l-276.94,553.89c-6.19,12.37-6.19,26.93,0,39.3l17.38,34.76c3.85,7.7,11.61,12.15,19.67,12.15,3.3,0,6.65-.75,9.81-2.32l158.35-79.18c12.76-6.38,23.1-16.72,29.48-29.48l264.56-529.12c6.19-12.37,6.19-26.93,0-39.3l-244.71-489.41c-1.01-2.02-2.96-3.04-4.91-3.04h0ZM902.87,670.71c-1.95,0-3.9,1.01-4.91,3.04l-393.01,786.01c-6.19,12.37-6.19,26.93,0,39.3l99.79,199.57c6.38,12.76,16.72,23.1,29.48,29.48l262,131c.83.42,1.67.6,2.48.6,3.78,0,6.83-4.08,4.89-7.97l-176.34-352.68c-6.19-12.37-6.19-26.93,0-39.3l276.94-553.89c6.19-12.37,6.19-26.93,0-39.3l-96.41-192.82c-1.01-2.02-2.96-3.04-4.91-3.04h0ZM1540.57,1175.57c-3.3,0-6.65.75-9.81,2.32l-369.26,184.63c-12.76,6.38-23.1,16.72-29.48,29.48l-46.26,92.52c-6.38,12.76-16.72,23.1-29.48,29.47l-178.16,89.08c-10.85,5.43-15.25,18.62-9.83,29.48l108.81,217.63c3.85,7.7,11.61,12.15,19.67,12.15,3.3,0,6.65-.75,9.81-2.32l118.88-59.44c3.15-1.58,6.51-2.32,9.81-2.32,8.06,0,15.82,4.45,19.67,12.15l10.07,20.14c5.43,10.85,1.03,24.05-9.83,29.48l-183.24,91.62c-6.19,3.09-12.92,4.64-19.65,4.64s-13.47-1.55-19.65-4.64l-347.97-173.99c-12.76-6.38-23.1-16.72-29.48-29.48l-92.31-184.63c-1.01-2.02-2.96-3.04-4.91-3.04s-3.9,1.01-4.91,3.04l-98.87,197.73c-5.43,10.85-1.03,24.05,9.83,29.48l568.63,284.32c6.19,3.09,12.92,4.64,19.65,4.64s13.47-1.55,19.65-4.64l430.26-215.13c12.76-6.38,23.1-16.72,29.48-29.48l46.26-92.52c6.38-12.75,16.72-23.1,29.48-29.47l230.89-115.45c10.85-5.43,15.25-18.62,9.83-29.48l-187.9-375.81c-3.85-7.7-11.61-12.15-19.67-12.15h0Z"/>
  </g>
</svg>
