<?xml version="1.0" encoding="UTF-8"?><svg id="Layer_1" xmlns="http://www.w3.org/2000/svg" viewBox="0 0 864 864"><defs><style>.cls-1{fill:#ff6700;stroke-width:0px;}</style></defs><path class="cls-1" d="M530.74,515.88l-96.8,193.6c-.8,1.6-3.09,1.6-3.89,0l-38.14-76.27c-2.45-4.89-2.45-10.65,0-15.55l50.89-101.78c2.45-4.89,2.45-10.65,0-15.55l-109.55-219.1c-2.45-4.89-2.45-10.65,0-15.55l6.87-13.75c2.15-4.29,7.37-6.03,11.66-3.89l62.64,31.32c5.05,2.52,9.14,6.61,11.66,11.66l104.65,209.3c2.45,4.89,2.45,10.65,0,15.55ZM303.87,265.68l69.75-139.51c.93-1.87-1.05-3.85-2.91-2.91l-103.64,51.82c-5.05,2.52-9.14,6.61-11.66,11.66l-39.47,78.94c-2.45,4.89-2.45,10.65,0,15.55l155.46,310.92c.8,1.6,3.09,1.6,3.89,0l38.14-76.27c2.45-4.89,2.45-10.65,0-15.55l-109.55-219.1c-2.45-4.89-2.45-10.65,0-15.55ZM400.67,86.66l72.48,36.24c4.29,2.15,6.03,7.37,3.89,11.66l-3.98,7.97c-2.15,4.29-7.37,6.03-11.66,3.89l-47.03-23.51c-4.29-2.15-9.51-.41-11.66,3.89l-43.04,86.09c-2.15,4.29-.41,9.51,3.89,11.66l70.47,35.24c5.05,2.52,9.14,6.61,11.66,11.66l18.3,36.6c2.52,5.05,6.61,9.14,11.66,11.66l146.07,73.03c4.29,2.15,9.51.41,11.66-3.89l74.33-148.66c2.15-4.29.41-9.51-3.89-11.66l-91.33-45.67c-5.05-2.52-9.14-6.61-11.66-11.66l-18.3-36.6c-2.52-5.05-6.61-9.14-11.66-11.66l-170.2-85.1c-4.89-2.45-10.65-2.45-15.55,0l-224.93,112.47c-4.29,2.15-6.03,7.37-3.89,11.66l39.11,78.22c.8,1.6,3.09,1.6,3.89,0l36.52-73.03c2.52-5.05,6.61-9.14,11.66-11.66l137.65-68.82c4.89-2.45,10.65-2.45,15.55,0ZM560.13,515.88l-109.55,219.1c-2.45,4.89-2.45,10.65,0,15.55l38.14,76.27c.8,1.6,3.09,1.6,3.89,0l183.81-367.62c2.15-4.29.41-9.51-3.89-11.66l-179.23-89.62c-1.87-.93-3.85,1.05-2.92,2.92l69.75,139.51c2.45,4.89,2.45,10.65,0,15.55Z"/></svg>