<?xml version="1.0" encoding="UTF-8"?>
<svg id="Layer_2" data-name="Layer 2" xmlns="http://www.w3.org/2000/svg" width="795.63" height="891.96" viewBox="0 0 795.63 891.96">
  <defs>
    <style>
      .cls-1 {
        fill: #e5e5e5;
      }
    </style>
  </defs>
  <g id="Layer_2-2" data-name="Layer 2">
    <g>
      <path class="cls-1" d="M460.25,428.14c17.13,34.25,26.16,80.87,28.54,99.9l39.25-92.76c-2.38-7.13-5.71-35.68,0-92.76,5.71-57.09,76.12-247.37,110.6-335.38-29.73,40.44-96.33,132.01-124.88,174.82-28.54,42.81-76.12,132.01-96.33,171.26,7.13,10.7,25.69,40.67,42.81,74.92Z"/>
      <path class="cls-1" d="M577.99,695.73c-19.98,17.12-46.38,47.57-57.09,60.65l-3.57-103.47c3.57-14.27,12.84-49.95,21.41-78.5,8.56-28.54,32.11-89.19,78.49-171.26,11.89-17.84,45.67-62.79,71.35-85.63,25.69-22.83,67.79-49.95,107.04-71.36-53.52,60.65-46.38,53.52-96.33,142.72-40.66,72.6-47.57,186.72-46.38,253.32-16.65,10.7-54.95,36.39-74.92,53.52Z"/>
      <path class="cls-1" d="M435.28,635.08c0,137.01-23.79,228.34-35.68,256.88-91.34-137.01-209.31-228.34-256.88-256.88-3.57-42.82-14.27-142-28.54-196.23C99.9,384.61,32.11,287.81,0,246.18c32.11,14.27,109.89,54.95,164.12,103.47,54.23,48.52,91.57,124.88,103.47,156.99,0-33.3-2.14-118.45-10.7-192.66C248.32,239.76,184.34,73.74,153.42,0c27.35,41.62,82.06,107.04,124.87,181.96,29.46,51.56,156.99,281.86,156.99,453.12Z"/>
    </g>
  </g>
</svg>