<?xml version="1.0" encoding="UTF-8"?>
<svg id="Layer_2" data-name="Layer 2" xmlns="http://www.w3.org/2000/svg" width="970.46" height="813.47" viewBox="0 0 970.46 813.47">
  <defs>
    <style>
      .cls-1 {
        fill: #e5e5e5;
      }
    </style>
  </defs>
  <g id="Layer_2-2" data-name="Layer 2">
    <g>
      <path class="cls-1" d="M449.55,281.86l32.11,42.81,35.68-42.81,85.64,435.28-121.31,96.33-114.17-96.33,82.06-435.28Z"/>
      <path class="cls-1" d="M624.37,463.82l-64.22-206.94,96.32-96.33,313.99,10.7c-14.28,15.46-50.67,47.81-82.07,67.79-31.41,19.98-74.92,42.81-114.17,46.38h-82.04l82.04,117.74-149.84,60.66Z"/>
      <path class="cls-1" d="M481.66,231.91l-146.28-167.69L367.49,0h235.49l28.52,64.22-149.83,167.69Z"/>
      <path class="cls-1" d="M399.6,256.89l-85.63-85.63H0c11.89,9.51,21.41,39.25,92.76,74.92,55.23,27.62,101.09,40.44,110.6,39.25h71.36l-82.06,117.74,153.42,60.66,53.52-206.94Z"/>
    </g>
  </g>
</svg>